<svg width="23" height="19" viewBox="0 0 23 19" fill="none" xmlns="http://www.w3.org/2000/svg">
<circle cx="8.80408" cy="10.9014" r="7.5" fill="white" stroke="#505050"/>
<path d="M8.83078 9.37522C7.79694 9.37522 6.84924 8.51368 6.84924 7.39368C6.84924 6.35983 7.71078 5.41214 8.83078 5.41214C9.95078 5.41214 10.8123 6.27368 10.8123 7.39368C10.8123 8.42752 9.95078 9.37522 8.83078 9.37522Z" fill="#505050"/>
<path fill-rule="evenodd" clip-rule="evenodd" d="M3.70154 13.0593C4.79705 11.4074 6.6733 10.3183 8.80391 10.3183C10.9345 10.3183 12.8108 11.4074 13.9063 13.0593C13.065 15.0461 11.0972 16.4399 8.80391 16.4399C6.51057 16.4399 4.5428 15.0461 3.70154 13.0593Z" fill="#505050"/>
<path d="M17.3041 11.9014C20.3416 11.9014 22.8041 9.43893 22.8041 6.40137C22.8041 3.3638 20.3416 0.901367 17.3041 0.901367C14.2665 0.901367 11.8041 3.3638 11.8041 6.40137C11.8041 9.43893 14.2665 11.9014 17.3041 11.9014Z" fill="white"/>
<path d="M17.3041 10.9014C19.7894 10.9014 21.8041 8.88665 21.8041 6.40137C21.8041 3.91609 19.7894 1.90137 17.3041 1.90137C14.8188 1.90137 12.8041 3.91609 12.8041 6.40137C12.8041 8.88665 14.8188 10.9014 17.3041 10.9014Z" fill="#505050"/>
<path d="M17.3041 9.90137C19.2371 9.90137 20.8041 8.33436 20.8041 6.40137C20.8041 4.46837 19.2371 2.90137 17.3041 2.90137C15.3711 2.90137 13.8041 4.46837 13.8041 6.40137C13.8041 8.33436 15.3711 9.90137 17.3041 9.90137Z" fill="white"/>
<path fill-rule="evenodd" clip-rule="evenodd" d="M17.0814 8.84961C17.1488 8.88281 17.224 8.90137 17.3041 8.90137C17.5804 8.90137 17.8041 8.67773 17.8041 8.40137V6.90137L19.3041 6.90137C19.5804 6.90137 19.8041 6.67773 19.8041 6.40137C19.8041 6.20313 19.6898 6.03223 19.5228 5.95117C19.4564 5.91895 19.3822 5.90137 19.3041 5.90137L17.8041 5.90137V4.40137C17.8041 4.125 17.5804 3.90137 17.3041 3.90137C17.0277 3.90137 16.8041 4.125 16.8041 4.40137V5.90137H15.3041C15.0277 5.90137 14.8041 6.125 14.8041 6.40137C14.8041 6.67773 15.0277 6.90137 15.3041 6.90137H16.8041V8.40137C16.8041 8.59766 16.9174 8.76758 17.0814 8.84961Z" fill="#505050"/>
</svg>
