<svg width="25" height="22" viewBox="0 0 25 22" fill="none" xmlns="http://www.w3.org/2000/svg">
<path d="M2.95944 14.5L0.959473 22L17.9594 22L16.9594 15L12.7419 12.1985L11.9594 11.5C13.2928 9.16667 16.4594 2 9.45944 2C2.94024 2 5.95944 8.83333 7.45944 11.5L6.32663 12.1953L2.95944 14.5Z" fill="white"/>
<path fill-rule="evenodd" clip-rule="evenodd" d="M5.87168 9.4755C6.53006 11.4017 7.77014 12.8661 9.53539 12.8661C11.2355 12.8661 12.4938 11.4228 13.1742 9.49946C14.5475 8.11467 14.2236 7.07967 13.9063 6.58517C14.6519 3.01442 12.3721 1 9.40505 1C4.08726 1 5.01493 6.82667 5.01493 6.82667C5.0178 6.82715 5.02092 6.82739 5.02404 6.82763C5.02715 6.82786 5.03026 6.8281 5.03314 6.82858C4.78972 7.37675 4.71785 8.29867 5.87168 9.4755ZM6.97089 3.96317C7.41312 3.96317 8.0368 4.08984 9.50391 4.08984C10.971 4.08984 11.7054 3.96317 12.0176 3.96317C12.3297 3.96317 12.4066 4.82131 12.4794 5.1136C12.5312 5.3206 12.6337 6.20279 12.8129 6.27946C12.7458 9.04425 11.5057 11.9336 9.53539 11.9336C7.70018 11.9336 6.49843 9.42758 6.2876 6.84967C6.2876 4.73791 6.52865 3.96317 6.97089 3.96317ZM8.7781 14.3027C8.7781 14.3027 8.4561 15.1298 8.45802 15.1336L8.96977 15.86H10.0987L10.6104 15.1336C10.6066 15.1202 10.2903 14.3027 10.2903 14.3027C10.253 14.3085 8.81548 14.3085 8.7781 14.3027ZM15.4159 13.1732C15.4834 13.2057 17.9867 13.9873 17.9964 17.276C17.9964 19.1839 18 20.092 18 22L1 22C1 21 1.03418 18.5 1.00009 17.2906C1.00009 14 3.58665 13.2076 3.65412 13.1751L3.65518 13.1746L3.68872 13.1602L6.3318 12.1885L8.45802 13.4732L7.93794 15.1336L8.6663 21.1992L9.00555 16.2767H10.0655L10.4095 21.3094L11.1255 15.1336L10.6104 13.4732L12.7392 12.1875L15.4149 13.1727L15.4159 13.1732ZM12.1745 20.2714L12.1709 20.271V20.8278C12.2639 20.8336 12.4287 20.8432 12.6491 20.8432C13.3046 20.8432 14.4412 20.7646 15.5462 20.3209V19.7392C14.1092 20.4802 12.2708 20.2818 12.1745 20.2714Z" fill="#505050"/>
<circle cx="18.5" cy="6.5" r="6.5" fill="white"/>
<path d="M18.5 12C21.5376 12 24 9.53757 24 6.5C24 3.46243 21.5376 1 18.5 1C15.4624 1 13 3.46243 13 6.5C13 9.53757 15.4624 12 18.5 12Z" fill="#505050"/>
<path d="M18.5 11C20.9853 11 23 8.98528 23 6.5C23 4.01472 20.9853 2 18.5 2C16.0147 2 14 4.01472 14 6.5C14 8.98528 16.0147 11 18.5 11Z" fill="white"/>
<path fill-rule="evenodd" clip-rule="evenodd" d="M18.2773 8.94824C18.3447 8.98145 18.4199 9 18.5 9C18.7764 9 19 8.77637 19 8.5V7L20.5 7C20.7764 7 21 6.77637 21 6.5C21 6.30176 20.8857 6.13086 20.7188 6.0498C20.6523 6.01758 20.5781 6 20.5 6L19 6V4.5C19 4.22363 18.7764 4 18.5 4C18.2236 4 18 4.22363 18 4.5V6H16.5C16.2236 6 16 6.22363 16 6.5C16 6.77637 16.2236 7 16.5 7H18V8.5C18 8.69629 18.1133 8.86621 18.2773 8.94824Z" fill="#505050"/>
</svg>
