<svg width="24" height="22" viewBox="0 0 24 22" fill="none" xmlns="http://www.w3.org/2000/svg">
<path d="M1.88867 2.5C1.88867 1.67157 2.56024 1 3.38867 1H11.4745C11.7397 1 11.994 1.10536 12.1816 1.29289L17.5958 6.70711C17.7833 6.89464 17.8887 7.149 17.8887 7.41421V20C17.8887 21.1046 16.9932 22 15.8887 22H3.38867C2.56024 22 1.88867 21.3284 1.88867 20.5V2.5Z" fill="white"/>
<path d="M17.8887 6.57C17.8858 6.43834 17.832 6.31292 17.7387 6.22L12.6387 1.15C12.5427 1.05519 12.4136 1.0014 12.2787 1L1.97867 1C1.68957 1 1.41237 1.11484 1.20797 1.31925C1.00357 1.52367 0.888672 1.80091 0.888672 2.09L0.888672 20.91C0.888672 21.1991 1.00357 21.4763 1.20797 21.6807C1.41237 21.8852 1.68957 22 1.97867 22L16.7987 22C17.0878 22 17.365 21.8852 17.5695 21.6807C17.7739 21.4763 17.8887 21.1991 17.8887 20.91L17.8887 6.59V6.57ZM16.8887 21C15.8887 21 2.88867 21 1.88867 21C1.88867 20 1.88867 3 1.88867 2C2.88867 2 10.2896 2 11.8887 2V5.75C11.8887 6.08152 12.0204 6.39946 12.2548 6.63388C12.4892 6.8683 12.8072 7 13.1387 7L16.8887 7C16.8887 9.41998 16.8887 20 16.8887 21Z" fill="#505050"/>
<path fill-rule="evenodd" clip-rule="evenodd" d="M8 14V15C8 16.1046 8.89543 17 10 17H13C14.1046 17 15 16.1046 15 15V14C15 12.8954 14.1046 12 13 12H11.25L11.5 13H13C13.5523 13 14 13.4477 14 14V15C14 15.5523 13.5523 16 13 16H10C9.44771 16 9 15.5523 9 15V14H8Z" fill="#2196F3"/>
<path fill-rule="evenodd" clip-rule="evenodd" d="M11 15V14C11 12.8954 10.1046 12 9 12H6C4.89543 12 4 12.8954 4 14V15C4 16.1046 4.89543 17 6 17H7.75L7.5 16H6C5.44771 16 5 15.5523 5 15V14C5 13.4477 5.44771 13 6 13H9C9.55229 13 10 13.4477 10 14L10 15H11Z" fill="#2196F3"/>
<path d="M17.5 13C21.0899 13 24 10.0899 24 6.5C24 2.91015 21.0899 0 17.5 0C13.9101 0 11 2.91015 11 6.5C11 10.0899 13.9101 13 17.5 13Z" fill="white"/>
<path d="M17.5 12C20.5376 12 23 9.53757 23 6.5C23 3.46243 20.5376 1 17.5 1C14.4624 1 12 3.46243 12 6.5C12 9.53757 14.4624 12 17.5 12Z" fill="#505050"/>
<path d="M17.5 11C19.9853 11 22 8.98528 22 6.5C22 4.01472 19.9853 2 17.5 2C15.0147 2 13 4.01472 13 6.5C13 8.98528 15.0147 11 17.5 11Z" fill="white"/>
<path fill-rule="evenodd" clip-rule="evenodd" d="M17.2773 8.94824C17.3447 8.98145 17.4199 9 17.5 9C17.7764 9 18 8.77637 18 8.5V7L19.5 7C19.7764 7 20 6.77637 20 6.5C20 6.30176 19.8857 6.13086 19.7188 6.0498C19.6523 6.01758 19.5781 6 19.5 6L18 6V4.5C18 4.22363 17.7764 4 17.5 4C17.2236 4 17 4.22363 17 4.5V6H15.5C15.2236 6 15 6.22363 15 6.5C15 6.77637 15.2236 7 15.5 7H17V8.5C17 8.69629 17.1133 8.86621 17.2773 8.94824Z" fill="#505050"/>
</svg>
