<svg width="23" height="19" viewBox="0 0 23 19" fill="none" xmlns="http://www.w3.org/2000/svg">
<circle cx="8.80408" cy="10.9014" r="7.5" fill="white" stroke="#505050"/>
<path fill-rule="evenodd" clip-rule="evenodd" d="M8.53567 14.6362C7.75461 15.4173 6.48829 15.4173 5.70725 14.6362L5.30836 14.2373C4.52731 13.4563 4.5273 12.19 5.30836 11.4089L6.61379 10.1035C6.6683 10.049 6.72518 9.99826 6.7841 9.95135L6.7841 11.5471L6.31475 12.0164C5.86917 12.462 5.86916 13.1845 6.31476 13.6301C6.76036 14.0757 7.48283 14.0756 7.92841 13.6301L8.83498 12.7235C9.09082 12.4677 9.19976 12.1205 9.1618 11.7869L9.16182 9.8697C9.26051 9.93774 9.35442 10.0157 9.44222 10.1035L9.84111 10.5024C10.6222 11.2834 10.6222 12.5497 9.84111 13.3308L8.53567 14.6362Z" fill="#505050"/>
<path fill-rule="evenodd" clip-rule="evenodd" d="M9.07272 7.64429C9.85378 6.86323 11.1201 6.86324 11.9012 7.64429L12.3 8.04318C13.0811 8.82422 13.0811 10.0905 12.3 10.8716L10.9946 12.177C10.9401 12.2315 10.8832 12.2823 10.8243 12.3292L10.8243 10.7335L11.2936 10.2641C11.7392 9.81853 11.7392 9.09606 11.2936 8.65046C10.848 8.20486 10.1256 8.20487 9.67998 8.65046L8.77342 9.55702C8.51758 9.81286 8.40864 10.16 8.44659 10.4936L8.44658 12.4108C8.34789 12.3428 8.25398 12.2648 8.16618 12.177L7.76729 11.7781C6.98624 10.9971 6.98623 9.73078 7.76729 8.94972L9.07272 7.64429Z" fill="#505050"/>
<path d="M17.3041 11.9014C20.3416 11.9014 22.8041 9.43893 22.8041 6.40137C22.8041 3.3638 20.3416 0.901367 17.3041 0.901367C14.2665 0.901367 11.8041 3.3638 11.8041 6.40137C11.8041 9.43893 14.2665 11.9014 17.3041 11.9014Z" fill="white"/>
<path d="M17.3041 10.9014C19.7894 10.9014 21.8041 8.88665 21.8041 6.40137C21.8041 3.91609 19.7894 1.90137 17.3041 1.90137C14.8188 1.90137 12.8041 3.91609 12.8041 6.40137C12.8041 8.88665 14.8188 10.9014 17.3041 10.9014Z" fill="#505050"/>
<path d="M17.3041 9.90137C19.2371 9.90137 20.8041 8.33436 20.8041 6.40137C20.8041 4.46837 19.2371 2.90137 17.3041 2.90137C15.3711 2.90137 13.8041 4.46837 13.8041 6.40137C13.8041 8.33436 15.3711 9.90137 17.3041 9.90137Z" fill="white"/>
<path fill-rule="evenodd" clip-rule="evenodd" d="M17.0814 8.84961C17.1488 8.88281 17.224 8.90137 17.3041 8.90137C17.5804 8.90137 17.8041 8.67773 17.8041 8.40137V6.90137L19.3041 6.90137C19.5804 6.90137 19.8041 6.67773 19.8041 6.40137C19.8041 6.20313 19.6898 6.03223 19.5228 5.95117C19.4564 5.91895 19.3822 5.90137 19.3041 5.90137L17.8041 5.90137V4.40137C17.8041 4.125 17.5804 3.90137 17.3041 3.90137C17.0277 3.90137 16.8041 4.125 16.8041 4.40137V5.90137H15.3041C15.0277 5.90137 14.8041 6.125 14.8041 6.40137C14.8041 6.67773 15.0277 6.90137 15.3041 6.90137H16.8041V8.40137C16.8041 8.59766 16.9174 8.76758 17.0814 8.84961Z" fill="#505050"/>
</svg>
