<svg width="17" height="16" viewBox="0 0 17 16" fill="none" xmlns="http://www.w3.org/2000/svg">
<circle cx="8.80408" cy="8" r="7.5" fill="white" stroke="#505050"/>
<path fill-rule="evenodd" clip-rule="evenodd" d="M5.54304 11.8128C5.23703 11.8492 5.01862 11.6308 5.05506 11.3248L6.17814 8.29223C6.23473 7.98112 6.99937 7.26516 7.26484 6.99969L9.66952 4.59501L12.3476 7.27309L9.94291 9.67778C9.69516 9.92553 8.99461 10.6356 8.66782 10.6744C7.70132 11.0386 8.66782 10.6744 5.54304 11.8128ZM8.41784 9.8596L7.07459 8.51635L6.03934 10.8948L8.41784 9.8596ZM12.7732 6.86445C13.2445 6.39314 13.3259 5.71029 12.955 5.33939L11.6117 3.99614C11.2408 3.62524 10.558 3.70665 10.0867 4.17796L12.7732 6.86445Z" fill="#505050"/>
</svg>
