<svg width="18" height="18" viewBox="0 0 18 18" xmlns="http://www.w3.org/2000/svg">
<path d="M9 18C13.9706 18 18 13.9706 18 9C18 4.02944 13.9706 0 9 0C4.02944 0 0 4.02944 0 9C0 13.9706 4.02944 18 9 18Z" />
<path d="M9 16C12.866 16 16 12.866 16 9C16 5.13401 12.866 2 9 2C5.13401 2 2 5.13401 2 9C2 12.866 5.13401 16 9 16Z" fill="white"/>
<rect x="8" y="3.44104" width="2" height="7.12137" rx="1" />
<rect x="13.6804" y="11.1497" width="2" height="5.80705" rx="1" transform="rotate(120 13.6804 11.1497)" />
</svg>
