<svg width="20" height="20" viewBox="0 0 20 20" fill="none" xmlns="http://www.w3.org/2000/svg">
<rect width="20" height="20" rx="4" />
<rect x="2" y="2" width="16" height="16" rx="2" fill="white"/>
<path fill-rule="evenodd" clip-rule="evenodd" d="M11.7574 13.1716C10.967 13.6951 10.0191 14 9 14C6.23858 14 4 11.7614 4 9C4 6.23858 6.23858 4 9 4C11.7614 4 14 6.23858 14 9C14 10.0191 13.6951 10.9669 13.1716 11.7574L15.6935 14.2793C16.084 14.6698 16.084 15.3029 15.6935 15.6935C15.303 16.084 14.6698 16.084 14.2793 15.6935L11.7574 13.1716ZM12 9C12 10.6569 10.6569 12 9 12C7.34315 12 6 10.6569 6 9C6 7.34315 7.34315 6 9 6C10.6569 6 12 7.34315 12 9Z" />
</svg>
