<svg width="15" height="14" viewBox="0 0 15 14" fill="none" xmlns="http://www.w3.org/2000/svg">
<g clip-path="url(#clip0)">
<rect x="0.0449219" width="14" height="14" rx="2" fill="white"/>
<path fill-rule="evenodd" clip-rule="evenodd" d="M9.80233 11.1716C9.01189 11.6951 8.06401 12 7.04492 12C4.2835 12 2.04492 9.76142 2.04492 7C2.04492 4.23858 4.2835 2 7.04492 2C9.80635 2 12.0449 4.23858 12.0449 7C12.0449 8.01907 11.74 8.96694 11.2165 9.75737L12.7245 11.2653C13.115 11.6558 13.115 12.289 12.7245 12.6795C12.334 13.0701 11.7008 13.0701 11.3103 12.6795L9.80233 11.1716ZM10.0449 7C10.0449 8.65685 8.70178 10 7.04492 10C5.38807 10 4.04492 8.65685 4.04492 7C4.04492 5.34315 5.38807 4 7.04492 4C8.70178 4 10.0449 5.34315 10.0449 7Z" fill="#58B070"/>
</g>
<defs>
<clipPath id="clip0">
<rect width="14" height="14" fill="white" transform="translate(0.0449219)"/>
</clipPath>
</defs>
</svg>
