<svg width="14" height="17" viewBox="0 0 14 17" fill="none" xmlns="http://www.w3.org/2000/svg">
<g clip-path="url(#clip0)">
<rect y="1.5" width="14" height="14" rx="2" fill="#58B070"/>
<path fill-rule="evenodd" clip-rule="evenodd" d="M9.75741 12.6716C8.96697 13.1951 8.01909 13.5 7 13.5C4.23858 13.5 2 11.2614 2 8.5C2 5.73858 4.23858 3.5 7 3.5C9.76142 3.5 12 5.73858 12 8.5C12 9.51907 11.6951 10.4669 11.1716 11.2574L12.6796 12.7653C13.0701 13.1558 13.0701 13.789 12.6796 14.1795C12.289 14.5701 11.6559 14.5701 11.2654 14.1795L9.75741 12.6716ZM10 8.5C10 10.1569 8.65685 11.5 7 11.5C5.34315 11.5 4 10.1569 4 8.5C4 6.84315 5.34315 5.5 7 5.5C8.65685 5.5 10 6.84315 10 8.5Z" fill="white"/>
</g>
<defs>
<clipPath id="clip0">
<rect width="14" height="14" fill="white" transform="translate(0 1.5)"/>
</clipPath>
</defs>
</svg>
