<svg viewBox="0 0 14 10" fill="none" xmlns="http://www.w3.org/2000/svg">
<rect width="14" height="10" rx="1" fill="white"/>
<path fill-rule="evenodd" clip-rule="evenodd" d="M1 5C0.447715 5 0 5.44772 0 6V9C0 9.55228 0.447715 10 1 10H6C6.55228 10 7 9.55228 7 9V6C7 5.44772 6.55228 5 6 5H1ZM6 6H1V9H6V6Z" fill="#BCBEC1"/>
<path fill-rule="evenodd" clip-rule="evenodd" d="M0 1C0 0.447716 0.447715 0 1 0H13C13.5523 0 14 0.447715 14 1V9C14 9.55228 13.5523 10 13 10H8V9H13V1H1V4H0V1Z" fill="#505050"/>
</svg>
