<svg width="19" height="19" viewBox="0 0 19 19" fill="none" xmlns="http://www.w3.org/2000/svg">
<path d="M17 5.57C16.9971 5.43834 16.9433 5.31292 16.85 5.22L11.75 0.15C11.654 0.05519 11.5249 0.0014 11.39 0L3.09 0C2.80091 0 2.52367 0.11484 2.31925 0.31925C2.11484 0.52367 2 0.80091 2 1.09L2 17.91C2 18.1991 2.11484 18.4763 2.31925 18.6807C2.52367 18.8852 2.80091 19 3.09 19L15.91 19C16.1991 19 16.4763 18.8852 16.6808 18.6807C16.8852 18.4763 17 18.1991 17 17.91L17 5.59V5.57Z" fill="white"/>
<path d="M17 5.57C16.9971 5.43834 16.9433 5.31292 16.85 5.22L11.75 0.15C11.654 0.05519 11.5249 0.0014 11.39 0L3.09 0C2.80091 0 2.52367 0.11484 2.31925 0.31925C2.11484 0.52367 2 0.80091 2 1.09L2 17.91C2 18.1991 2.11484 18.4763 2.31925 18.6807C2.52367 18.8852 2.80091 19 3.09 19L15.91 19C16.1991 19 16.4763 18.8852 16.6808 18.6807C16.8852 18.4763 17 18.1991 17 17.91L17 5.59V5.57ZM16 18C11.0002 18.0586 7.99996 18 3 18C3 11.3304 3 7.66073 3 0.991089C3 0.991089 7.66776 1 11 1V4.75C11 5.08152 11.1317 5.39946 11.3661 5.63388C11.6005 5.8683 11.9185 6 12.25 6L16 6C16 11 16.0001 13 16 18Z" fill="#BCBEC1"/>
<path d="M0 12C0 10.8954 0.895431 10 2 10H3C3.55228 10 4 10.4477 4 11H15C15 10.4477 15.4477 10 16 10H17C18.1046 10 19 10.8954 19 12V17H16C15.4477 17 15 16.5523 15 16H4C4 16.5523 3.55228 17 3 17H0V12Z" fill="#BCBEC1"/>
<circle cx="17" cy="13" r="1" fill="white"/>
</svg>
