<svg viewBox="0 0 22 22" fill="none" xmlns="http://www.w3.org/2000/svg">
<path d="M11 19.3C15.584 19.3 19.3 15.584 19.3 11C19.3 6.41603 15.584 2.7 11 2.7C6.41605 2.7 2.70001 6.41603 2.70001 11C2.70001 15.584 6.41605 19.3 11 19.3Z" fill="white"/>
<path d="M11.1 19.9C6.19998 19.9 2.09998 15.9 2.09998 10.9C2.09998 5.9 6.09998 1.9 11.1 1.9C16 2 19.9 6 19.9 10.9V11C20 15.9 16.1 19.9 11.2 19.9H11.1ZM11.1 3.1C6.69998 3.2 3.29998 6.7 3.09998 11C3.19998 15.3 6.69998 18.7 11 18.8C15.3 18.7 18.7 15.2 18.8 11C18.8 6.7 15.3 3.3 11.1 3.1Z" fill="#505050"/>
<path d="M14.7 6.8H7.5V14.9H9.5V8.6H12.5V14.9H14.7V6.8Z" fill="#505050"/>
</svg>
