<svg viewBox="0 0 22 22" fill="none" xmlns="http://www.w3.org/2000/svg">
<path d="M11 20C15.9706 20 20 15.9706 20 11C20 6.02944 15.9706 2 11 2C6.02944 2 2 6.02944 2 11C2 15.9706 6.02944 20 11 20Z" fill="#FFA100"/>
<path d="M13.5 10.4C13.5 10.4 14.4 10.1 14.4 8.6C14.4 6.6 11.4 6.6 11.4 6.6H8V15H11.8C12.3 15 15 15.1 15 12.4C15 11.4 13.9 10.5 13.5 10.4ZM11.7 9.9C11.6 9.9 10 9.9 10 9.9V8.2C10 8.2 11.3 8.2 11.5 8.2C11.7 8.2 12.4 8.3 12.4 9C12.4 9.7 11.8 9.9 11.7 9.9ZM11.9 13.5C11.9 13.5 10.8 13.5 10.2 13.5H10V11.4H10.4C10.8 11.4 11.6 11.4 11.8 11.4C12 11.4 13 11.5 13 12.4C13 13.6 11.9 13.5 11.9 13.5Z" fill="white"/>
</svg>
