<svg width="15" height="11" viewBox="0 0 15 11" fill="none" xmlns="http://www.w3.org/2000/svg">
<path fill-rule="evenodd" clip-rule="evenodd" d="M2.37704 3.22514C2.37704 4.48283 3.41153 5.45028 4.54007 5.45028C5.76264 5.45028 6.70309 4.3861 6.70309 3.22514C6.70309 1.96744 5.76264 1 4.54007 1C3.31749 1 2.37704 2.06418 2.37704 3.22514ZM0 10.9844C0 10.0054 0.00380252 6.78314 4.5 6.78314C8.9962 6.78314 9 10.0054 9 10.9844L8.9962 11H0.00380252L0 10.9844Z" fill="#8F8F8F"/>
<path fill-rule="evenodd" clip-rule="evenodd" d="M10.6591 4.45028C9.56068 4.45028 8.5538 3.48283 8.5538 2.22514C8.5538 1.06418 9.46915 0 10.6591 0C11.849 0 12.7644 0.967443 12.7644 2.22514C12.7644 3.3861 11.849 4.45028 10.6591 4.45028ZM8 6C10.4128 6.61528 10.7038 8.95979 10.7389 10H14.9963L15 9.98442C15 9.00538 14.9963 5.78314 10.6201 5.78314C9.47215 5.78314 8.62562 5.78314 8 6Z" fill="#BCBEC1"/>
</svg>
