<svg width="15" height="16" viewBox="0 0 15 16" fill="none" xmlns="http://www.w3.org/2000/svg">
<g clip-path="url(#clip0)">
<path fill-rule="evenodd" clip-rule="evenodd" d="M7.04611 0.0474854C11.5856 0.0474854 12.7071 5.80495 9.8945 8.66433C11.7702 10.3168 14.9564 11.6251 13.7168 14.7594C13.0865 16.3531 1.00226 16.3932 0.356241 14.7594C-0.888692 11.6109 2.31776 10.3207 4.19723 8.66433C1.38444 5.80452 2.50656 0.0474854 7.04611 0.0474854ZM7.04611 1.99426C11.175 1.99426 9.8945 7.99472 7.04611 7.99472C4.19748 7.99472 2.91696 1.99426 7.04611 1.99426ZM8.49826 10.0217C8.02219 10.2692 7.43552 10.3573 7.04611 10.3573C6.65646 10.3573 6.06955 10.2692 5.59347 10.0217C4.58019 10.8231 1.7862 12.2603 2.38889 13.742C2.68254 14.464 11.6542 14.463 11.9475 13.742C12.5905 12.161 9.53563 10.8422 8.49826 10.0217Z" fill="white"/>
</g>
<defs>
<clipPath id="clip0">
<rect width="14" height="16" fill="white" transform="translate(0.0449219)"/>
</clipPath>
</defs>
</svg>
