<svg width="18" height="18" viewBox="0 0 18 18" fill="none" xmlns="http://www.w3.org/2000/svg">
<path fill-rule="evenodd" clip-rule="evenodd" d="M9.00113 0H9.00406C13.717 0 14.6266 6.84105 11.8495 9.66432C12.5609 10.2911 14.5123 10.8069 15.6124 11.1806C15.7689 11.2338 15.9171 11.2841 16.0531 11.3314C17.7281 11.9141 18.3009 14.3118 17.7283 15.7594C16.9537 17.7737 10.5485 17.9995 9.00113 18C7.45377 17.9995 1.03515 17.7737 0.260243 15.7594C-0.312267 14.3118 0.260487 11.9141 1.93554 11.3314C2.0432 11.2939 2.15844 11.2546 2.27929 11.2134L2.29979 11.2065L2.35717 11.187L2.37621 11.1806C3.47631 10.8069 5.44107 10.2911 6.15225 9.66432C3.3754 6.84105 4.28482 0 8.99771 0H9.00113ZM9.00113 1.99425C13.13 1.99425 11.8495 8.99471 9.00113 8.99471C6.1525 8.99471 4.87198 1.99425 9.00113 1.99425ZM10.4533 10.723C9.9772 10.9705 9.39053 11.0586 9.00113 11.0586C8.61148 11.0586 8.02457 10.9705 7.54849 10.723C6.26529 11.7379 4.09447 12.3418 3.21947 12.6481L3.00902 12.7222C2.01683 13.0756 1.64891 14.1119 1.93554 14.8166C2.16967 15.3922 5.01749 16.028 9.00113 16.0281C12.9845 16.028 15.8189 15.3922 16.0531 14.8166C16.3397 14.1119 15.9718 13.0756 14.9796 12.7222L14.7691 12.6481C13.8941 12.3418 11.7365 11.7379 10.4533 10.723Z" />
</svg>
