<svg width="14" height="17" viewBox="0 0 14 17" fill="none" xmlns="http://www.w3.org/2000/svg">
<g clip-path="url(#clip0)">
<g clip-path="url(#clip1)">
<path fill-rule="evenodd" clip-rule="evenodd" d="M7.00119 0.547485C11.5407 0.547485 12.6622 6.30495 9.84958 9.16433C11.7252 10.8168 14.9115 12.1251 13.6719 15.2594C13.0416 16.8531 0.957337 16.8932 0.311319 15.2594C-0.933613 12.1109 2.27284 10.8207 4.15231 9.16433C1.33952 6.30452 2.46164 0.547485 7.00119 0.547485ZM7.00119 2.49426C11.1301 2.49426 9.84958 8.49472 7.00119 8.49472C4.15256 8.49472 2.87204 2.49426 7.00119 2.49426ZM8.45334 10.5217C7.97727 10.7692 7.39059 10.8573 7.00119 10.8573C6.61154 10.8573 6.02463 10.7692 5.54855 10.5217C4.53527 11.3231 1.74128 12.7603 2.34397 14.242C2.63762 14.964 11.6093 14.963 11.9025 14.242C12.5456 12.661 9.49071 11.3422 8.45334 10.5217Z" fill="#58B070"/>
</g>
</g>
<defs>
<clipPath id="clip0">
<rect width="14" height="16" fill="white" transform="translate(0 0.5)"/>
</clipPath>
<clipPath id="clip1">
<rect width="14" height="16" fill="white" transform="translate(0 0.5)"/>
</clipPath>
</defs>
</svg>
