<svg width="20" height="20" viewBox="0 0 20 20" fill="none" xmlns="http://www.w3.org/2000/svg">
<path d="M2 4C2 2.89543 2.89543 2 4 2H16C17.1046 2 18 2.89543 18 4V10.4C18 11.5046 17.1046 12.4 16 12.4H12.6051C12.4356 12.4 12.2777 12.4858 12.1855 12.6281L10 16L7.81448 12.6281C7.7223 12.4858 7.56437 12.4 7.3949 12.4H4C2.89543 12.4 2 11.5046 2 10.4V4Z" fill="white"/>
<path fill-rule="evenodd" clip-rule="evenodd" d="M10 19.6772L6.57961 14.4H4C1.79086 14.4 0 12.6091 0 10.4V4C0 1.79086 1.79086 0 4 0H16C18.2091 0 20 1.79086 20 4V10.4C20 12.6091 18.2091 14.4 16 14.4H13.4204L10 19.6772ZM7.81448 12.6281C7.7223 12.4858 7.56437 12.4 7.3949 12.4H4C2.89543 12.4 2 11.5046 2 10.4V4C2 2.89543 2.89543 2 4 2H16C17.1046 2 18 2.89543 18 4V10.4C18 11.5046 17.1046 12.4 16 12.4H12.6051C12.4356 12.4 12.2777 12.4858 12.1855 12.6281L10 16L7.81448 12.6281Z" />
<circle cx="10" cy="7.5" r="1.5" />
<circle cx="6" cy="7.5" r="1.5" />
<circle cx="14" cy="7.5" r="1.5" />
</svg>
