<svg width="15" height="16" viewBox="0 0 15 16" fill="none" xmlns="http://www.w3.org/2000/svg">
<g clip-path="url(#clip0)">
<path d="M0.0449219 4C0.0449219 2.89543 0.940352 2 2.04492 2H12.0449C13.1495 2 14.0449 2.89543 14.0449 4V10.4C14.0449 11.5046 13.1495 12.4 12.0449 12.4H9.65002C9.48055 12.4 9.32262 12.4858 9.23044 12.6281L7.04492 16L4.8594 12.6281C4.76723 12.4858 4.60929 12.4 4.43982 12.4H2.04492C0.940352 12.4 0.0449219 11.5046 0.0449219 10.4V4Z" fill="white"/>
<circle cx="7.04492" cy="7.5" r="1.5" fill="#58B070"/>
<circle cx="3.04492" cy="7.5" r="1.5" fill="#58B070"/>
<circle cx="11.0449" cy="7.5" r="1.5" fill="#58B070"/>
</g>
<defs>
<clipPath id="clip0">
<rect width="14" height="16" fill="white" transform="translate(0.0449219)"/>
</clipPath>
</defs>
</svg>
