<svg viewBox="0 0 19 19" fill="none" xmlns="http://www.w3.org/2000/svg">
<path fill-rule="evenodd" clip-rule="evenodd" d="M2.79337 13.2422C2.49861 12.7194 2.26554 12.1622 2.09759 11.5844L0.767759 11.4296C0.329039 11.378 0 11.0065 0 10.5662V8.51284C0 8.07258 0.329039 7.70111 0.767759 7.64951L2.02908 7.50505C2.18674 6.87218 2.42667 6.26338 2.742 5.69242L1.95367 4.69151C1.67947 4.34412 1.70689 3.84883 2.01879 3.53583L3.4652 2.08434C3.7771 1.77479 4.27066 1.74383 4.61684 2.01899L5.5594 2.76881C6.16264 2.40766 6.81043 2.1325 7.48908 1.9502L7.62618 0.770441C7.67759 0.33018 8.04776 -1.52588e-05 8.48648 -1.52588e-05H10.5327C10.9714 -1.52588e-05 11.3416 0.33018 11.393 0.770441L11.5301 1.9502C12.1916 2.12906 12.8223 2.3939 13.4118 2.7413L14.3201 2.01899C14.6663 1.74383 15.1598 1.77135 15.4717 2.08434L16.9147 3.53239C17.2232 3.84539 17.254 4.34068 16.9798 4.68807L16.2395 5.62707C16.5548 6.19115 16.8015 6.79307 16.9661 7.4225L18.1691 7.56353C18.6078 7.61512 18.9369 7.98659 18.9369 8.42685V10.4803C18.9369 10.9205 18.6079 11.292 18.1691 11.3436L16.9489 11.4846C16.7776 12.1209 16.5205 12.7297 16.1915 13.3007L16.9832 14.3085C17.2574 14.6558 17.23 15.1511 16.9181 15.4641L15.4717 16.9156C15.1598 17.2252 14.6662 17.2561 14.32 16.981L13.3021 16.1727C12.7228 16.4994 12.1059 16.7505 11.4615 16.9191L11.3107 18.2295C11.2593 18.6698 10.8891 19 10.4504 19H8.40418C7.96546 19 7.59529 18.6698 7.54388 18.2295L7.38622 16.8709C6.78641 16.6989 6.21059 16.4548 5.66904 16.1417L4.6168 16.9775C4.27062 17.2527 3.77707 17.2252 3.46516 16.9122L2.01876 15.4607C1.71029 15.1477 1.67944 14.6524 1.95364 14.3051L2.79337 13.2422ZM9.46845 14C11.9455 14 13.9535 11.9853 13.9535 9.49998C13.9535 7.0147 11.9455 4.99998 9.46845 4.99998C6.99142 4.99998 4.9834 7.0147 4.9834 9.49998C4.9834 11.9853 6.99142 14 9.46845 14Z" fill="#BCBEC1"/>
</svg>
