<svg width="15" height="19" viewBox="0 0 15 19" fill="none" xmlns="http://www.w3.org/2000/svg">
<path fill-rule="evenodd" clip-rule="evenodd" d="M8.07692 0.247794L11.5385 3.01256L8.07692 5.5422V3.71296C7.88716 3.6945 7.69474 3.68505 7.50011 3.68505C4.26541 3.68505 1.64316 6.29539 1.64316 9.51542C1.64316 11.1608 2.32788 12.6471 3.42915 13.7072L2.26716 14.8639C0.86858 13.5077 0 11.6125 0 9.51541C0 5.39208 3.35786 2.04945 7.5 2.04945C7.69412 2.04945 7.88651 2.05679 8.07692 2.07121V0.247794ZM13.3571 9.51542C13.3571 8.01174 12.7852 6.64101 11.8462 5.60697L13.0092 4.44933C14.2449 5.78033 15 7.56009 15 9.51541C15 13.4455 11.9495 16.6664 8.07692 16.9596V18.752L4.61537 16.0183L8.07692 13.361V15.3179C11.0409 15.0294 13.3571 12.5417 13.3571 9.51542Z" fill="#BCBEC1"/>
</svg>
